<?xml version="1.0" encoding="UTF-8"?>
<svg width="161px" height="152px" viewBox="0 0 161 152" version="1.1" xmlns="http://www.w3.org/2000/svg" xmlns:xlink="http://www.w3.org/1999/xlink">
    <!-- Generator: Sketch 51.1 (57501) - http://www.bohemiancoding.com/sketch -->
    <title>Group 2</title>
    <desc>Created with Sketch.</desc>
    <defs></defs>
    <g id="Page-2" stroke="none" stroke-width="1" fill="none" fill-rule="evenodd">
        <g id="iPhone-8" transform="translate(-107.000000, -257.000000)">
            <g id="Group-2" transform="translate(108.500000, 258.658333)">
                <g id="Group" transform="translate(10.276045, 132.054149)">
                    <path d="M137.222546,0.0431398842 C137.254211,0.0391410614 137.285783,0.0351422386 137.317448,0.0311434157 L137.317448,10.6326737 C137.251096,10.6569457 137.199901,10.638672 137.163447,10.5782246 C137.058594,10.3765631 137.07631,10.1567673 137.07617,9.94148185 C137.073799,6.87796508 137.073567,3.8145413 137.077054,0.75107102 C137.077333,0.508119284 137.035671,0.250427701 137.222546,0.0431398842" id="Fill-4" fill="#FF951F"></path>
                    <path d="M137.230041,10.639495 C137.259149,10.6366121 137.288257,10.6343337 137.317458,10.6327063 L137.317458,11.0976857 C137.265147,11.1280953 137.22037,11.1194467 137.182753,11.0720188 C137.107566,10.9178781 137.095941,10.7706657 137.230041,10.639495" id="Fill-6" fill="#FFB15B"></path>
                    <path d="M137.317453,11.9346253 L137.279046,11.9397866 L137.240266,11.9384382 C137.091333,11.8098714 137.107515,11.6586601 137.179773,11.4996836 C137.216878,11.4498378 137.262818,11.4398408 137.317453,11.4696459 L137.317453,11.9346253 Z" id="Fill-9" fill="#FFE7CC"></path>
                    <path d="M137.317453,11.4696459 C137.291972,11.4755977 137.266212,11.4776436 137.240173,11.4757837 C137.115977,11.3525176 137.116675,11.2287866 137.238685,11.1044976 C137.265096,11.1041721 137.291321,11.1018472 137.317453,11.0976624 L137.317453,11.4696459 Z" id="Fill-12" fill="#FFC98D"></path>
                    <path d="M137.238667,11.1045209 C137.239178,11.2282519 137.239643,11.3520294 137.240155,11.4757604 C137.240201,11.6299941 137.240248,11.7842278 137.240248,11.9384614 C137.184543,13.2644897 136.766759,14.4599052 135.905803,15.4763037 C135.099855,16.4278375 134.030727,16.9313172 132.822339,17.1354432 C131.951293,17.2826092 131.066949,17.3207375 130.183116,17.3235738 C128.742098,17.3282236 127.300988,17.3283166 125.85997,17.3275262 C125.489753,17.3272937 125.486126,17.3225509 125.484918,16.9435927 C125.482407,16.168844 125.481895,15.3940488 125.485197,14.6193002 C125.486731,14.2539658 125.491474,14.25006 125.877035,14.2490836 C127.132154,14.2457357 128.387319,14.2529894 129.642298,14.2409929 C130.30773,14.2346227 130.972744,14.2027716 131.631248,14.0856433 C132.546606,13.922854 133.132108,13.3848263 133.403424,12.512153 C133.654466,11.7045768 133.673344,10.8634291 133.675483,10.0273031 C133.683574,6.89729427 133.679435,3.76723894 133.6799,0.637183616 C133.679947,0.513220108 133.687387,0.388791621 133.678878,0.265432586 C133.66637,0.0838116323 133.746718,0.0231783186 133.923271,0.0247592486 C135.022993,0.0346633098 136.122763,0.0377786718 137.222532,0.0431259349 C137.222997,3.4048805 137.223415,6.76663506 137.224206,10.1283431 C137.224252,10.2986651 137.227972,10.4690335 137.229972,10.6394485 C137.232901,10.7945191 137.235784,10.9495432 137.238667,11.1045209" id="Fill-33" fill="#FF8600"></path>
                    <path d="M6.28596515,17.3402852 C4.69001635,17.3405177 3.09406756,17.3405177 1.49816527,17.3405177 C1.4206997,17.3405177 1.34323413,17.3410292 1.26576856,17.3404247 C0.83040835,17.3369839 0.827757967,17.3369374 0.826595519,16.916968 C0.824503112,16.1732334 0.825991046,15.4294989 0.825991046,14.6857643 C0.825991046,14.6547967 0.825154083,14.6237826 0.826270033,14.5928149 C0.837801522,14.2701657 0.83784802,14.2696077 1.17221471,14.2606336 C1.26516409,14.2581228 1.35815997,14.2601687 1.45115585,14.2601687 C3.96120764,14.2595642 6.47135243,14.2588202 8.98145073,14.2584482 C9.55574678,14.2583552 10.1255325,14.217716 10.6887621,14.0960774 C11.4626273,13.9290568 11.9639216,13.4695642 12.1278733,12.6959315 C12.316841,11.804101 11.9831252,10.990945 11.2934678,10.5346142 C10.7381429,10.1670945 10.1062359,10.0965106 9.46944661,10.087583 C8.13714113,10.0689839 6.80441718,10.0811663 5.47201871,10.0705183 C4.80430829,10.0652175 4.14617645,9.97133818 3.49427533,9.82221928 C1.74265143,9.42154654 0.712536072,8.28206802 0.239094047,6.60530581 C-0.141631085,5.25695854 0.00302400625,3.94246178 0.598941605,2.67055713 C1.24842483,1.28422105 2.34168439,0.49715042 3.82543366,0.214954422 C4.4361376,0.0988025682 5.0545602,0.0498402374 5.67391276,0.0480268177 C8.75728416,0.0391922091 11.8406556,0.0397036865 14.9240734,0.0390062174 C15.3034036,0.0389132215 15.3080534,0.0447719619 15.3096344,0.420242827 C15.3128427,1.194945 15.3128427,1.96974018 15.3096344,2.74444236 C15.3080999,3.11386849 15.3033571,3.11912276 14.9183542,3.11940174 C12.5322194,3.12116867 10.1460846,3.11526343 7.75994984,3.12326107 C6.97060082,3.12591146 6.17836892,3.13549003 5.3976685,3.26852064 C4.63863613,3.39787791 4.26404873,3.78873959 4.13190158,4.54781846 C4.10018999,4.72999739 4.07303519,4.91664012 4.07633654,5.10067897 C4.09284331,6.01952476 4.52048487,6.57201328 5.40571265,6.82872841 C5.90068322,6.97222105 6.40955667,7.01183729 6.92238245,7.01276725 C8.06897515,7.01481316 9.21566085,7.00732699 10.3621141,7.0207184 C11.1988445,7.03048297 12.0369234,7.0727031 12.8498933,7.29017396 C13.9636585,7.58822576 14.9626202,8.11890675 15.5019033,9.17273606 C16.5430387,11.2072999 16.6224572,13.2739009 15.4004913,15.2797755 C14.663964,16.4887219 13.5267639,17.0830121 12.1388933,17.2403611 C11.3363389,17.3313576 10.5313666,17.3384718 9.72574325,17.3396342 C8.57915055,17.3412617 7.43255785,17.3400527 6.28596515,17.3402852" id="Fill-18" fill="#069AE4"></path>
                    <path d="M122.067421,5.65867284 C122.067421,7.33204071 122.067421,9.00545507 122.067421,10.6788229 C122.067421,10.7872561 122.074814,10.8963403 122.066305,11.004076 C122.049985,11.2111313 122.150141,11.2714857 122.343433,11.2682773 C122.823571,11.2601867 123.303987,11.2657664 123.784311,11.2659059 C123.892791,11.2659524 124.001457,11.2708347 124.109611,11.2654409 C124.283374,11.2567923 124.361816,11.3263532 124.360839,11.5083462 C124.356236,12.3604674 124.356143,13.2126817 124.361165,14.0648494 C124.362327,14.2700448 124.266774,14.3314686 124.076504,14.3294227 C123.518715,14.3234245 122.960879,14.3237035 122.403136,14.3292367 C122.077418,14.3324451 122.070723,14.3390478 122.068909,14.6681137 C122.064631,15.4428159 122.069979,16.2175645 122.066166,16.9922202 C122.064538,17.3190077 122.05854,17.3259359 121.735193,17.3270519 C120.728095,17.3305857 119.720949,17.3305392 118.713804,17.3271449 C118.385203,17.3260754 118.3786,17.3195192 118.376694,16.9949171 C118.372416,16.2512291 118.376694,15.507448 118.374694,14.7637135 C118.373532,14.3323986 118.371068,14.3286787 117.949331,14.3283067 C116.074534,14.3268188 114.199737,14.3276093 112.32494,14.3276093 C110.868485,14.3276093 109.41203,14.3274698 107.955575,14.3277023 C107.412247,14.3277953 107.463395,14.3539271 107.462837,13.8173409 C107.461907,12.9342055 107.481575,12.0504192 107.45363,11.1681208 C107.44182,10.7949748 107.565132,10.5333309 107.811711,10.2663397 C109.977166,7.92172758 112.130858,5.56623494 114.288176,3.21399715 C115.178286,2.24339915 116.072116,1.27614901 116.95567,0.299599272 C117.121621,0.116164899 117.284783,0.0171707848 117.547496,0.0198676653 C118.926346,0.034003039 120.305428,0.0252149284 121.684418,0.0273538336 C122.06133,0.027865311 122.066166,0.0326081008 122.066584,0.406126053 C122.068444,2.15695948 122.067421,3.90783941 122.067421,5.65867284 Z M111.598415,11.2444192 C111.768225,11.2570202 111.826441,11.2651573 111.884703,11.2651573 C113.913919,11.2659013 115.943136,11.2658548 117.972399,11.2658083 C118.034381,11.2658083 118.096409,11.2625999 118.158251,11.2648783 C118.31932,11.2709231 118.377349,11.1830884 118.374467,11.0350855 C118.372932,10.9576664 118.37521,10.8801544 118.37521,10.8027353 C118.375303,8.64955519 118.37614,6.49642158 118.372932,4.34324147 C118.372746,4.22918203 118.415617,4.1012197 118.293235,3.96163288 C116.076585,6.37292305 113.870769,8.77249574 111.598415,11.2444192 Z" id="Combined-Shape" fill="#FF8600"></path>
                    <path d="M30.7506935,4.79955366 C29.1724604,6.40647596 27.5942274,8.01344477 25.9813068,9.65565901 C26.2020325,9.74474907 26.3850949,9.71187502 26.5600667,9.71103806 C27.0575481,9.70862017 27.5495428,9.73995978 28.0328424,9.87061899 C28.8251208,10.084742 29.3553368,10.5761787 29.6397647,11.3457661 C29.8292903,11.8584524 29.9325623,12.3897844 29.9859884,12.9286955 C30.1223204,14.3038256 30.0621055,15.6843029 30.0761014,17.0627808 C30.0780543,17.2550033 30.0220708,17.3441399 29.8145505,17.3428379 C28.8228424,17.3365607 27.8309949,17.3341428 26.8393333,17.3440469 C26.5834086,17.3466508 26.5762015,17.2059945 26.5768059,17.0180498 C26.5798283,16.1038073 26.5773639,15.1895183 26.575876,14.2752758 C26.575318,13.9492788 26.553557,13.6266761 26.4667918,13.3089557 C26.349524,12.8796867 26.078999,12.612928 25.6519154,12.5042623 C25.3811579,12.4353989 25.1063551,12.3950851 24.8249496,12.3962476 C24.1121361,12.3991305 23.3992762,12.3935042 22.6865093,12.3960151 C22.3049472,12.397317 22.2993674,12.4017344 22.29867,12.7768332 C22.2960661,14.124948 22.2994139,15.4731093 22.2968101,16.8212705 C22.2956476,17.4025878 22.3565599,17.3375837 21.7737547,17.3396761 C20.9060102,17.3428379 20.0382191,17.3432099 19.1704281,17.3390251 C18.844059,17.3374907 18.843687,17.3301905 18.8345734,17.0042864 C18.8324345,16.9268674 18.834155,16.8493088 18.834155,16.7718432 C18.834155,11.3792447 18.8336435,5.98659957 18.8348059,0.593954481 C18.8349454,-0.0277694742 18.775893,0.0409079831 19.3721826,0.0387690779 C20.1934292,0.0358397077 21.0147224,0.0374206376 21.8360155,0.0382576005 C22.3026688,0.0387225799 22.298484,-0.0141455778 22.2977865,0.484033351 C22.2970425,1.02643182 22.297647,1.56878379 22.297647,2.11113576 L22.297647,9.13083676 L22.297647,9.62566784 C22.5013545,9.57335766 22.5862132,9.41786855 22.693763,9.30213518 C24.012491,7.88343653 25.3321026,6.46552835 26.6392062,5.03618167 C26.8538407,4.80146007 27.0697771,4.68958603 27.3959136,4.69539827 C28.493544,4.71483441 29.5917324,4.70274495 30.6896882,4.70274495 C30.7100078,4.73501452 30.7303739,4.76728409 30.7506935,4.79955366" id="Fill-23" fill="#069AE4"></path>
                    <path d="M88.6484404,11.0644675 C88.6348165,12.554494 88.3489472,13.897866 87.4836205,15.0701721 C86.5002356,16.4024311 85.1528648,17.1303563 83.5474304,17.3920467 C82.1257559,17.6237459 80.7038489,17.6069602 79.3223021,17.1449567 C77.2247335,16.4434422 75.9178159,15.016653 75.4740396,12.8344116 C75.2145811,11.5589731 75.1755228,10.2758625 75.5359749,9.01651228 C76.2290267,6.59476007 77.8495264,5.1585782 80.3118248,4.68857702 C81.6513839,4.43293135 82.9981503,4.46924624 84.3186918,4.82188662 C86.4032409,5.37865295 87.6642185,6.78182129 88.30868,8.79522858 C88.5519572,9.55523741 88.6149619,10.3413316 88.6484404,11.0644675 Z M85.0789517,10.9796925 C85.0839734,10.4274365 85.0407304,9.82789203 84.8631082,9.2440174 C84.5203254,8.11709333 83.7872389,7.41269603 82.612329,7.23791028 C80.90711,6.98431051 79.4052265,7.5693011 78.9866986,9.59861069 C78.7998699,10.5042511 78.774203,11.4131463 78.9428975,12.3180892 C79.1741783,13.5589797 79.8482589,14.4409527 81.110585,14.7740639 C81.5902112,14.9005848 82.0820664,14.9124883 82.5827563,14.8406954 C83.6882913,14.682277 84.4131477,14.08343 84.7910364,13.0420621 C85.0270135,12.3916025 85.082718,11.7167778 85.0789517,10.9796925 Z" id="Combined-Shape" fill="#069AE4"></path>
                    <path d="M91.2179724,11.0518015 L91.2179724,5.38002929 C91.2179724,5.30256372 91.2172749,5.22505166 91.2180654,5.14753959 C91.2224827,4.70822705 91.2226222,4.70822705 91.6451955,4.70278679 C91.6761631,4.70236831 91.7071772,4.7027403 91.7381448,4.7027403 C93.7681984,4.70278679 95.798252,4.7050187 97.8283055,4.70148485 C98.4027411,4.7004619 98.9777346,4.72361787 99.544033,4.80182741 C101.319231,5.04682505 102.444203,6.12185742 102.811583,7.88705872 C102.931873,8.46484212 102.987903,9.0499257 102.987996,9.64021705 C102.988182,12.0576914 102.988182,14.4751193 102.987996,16.8926402 C102.987996,16.9855431 102.986183,17.078539 102.984602,17.1714419 C102.982602,17.2873612 102.913181,17.3327432 102.807444,17.3373 C102.745556,17.3399504 102.683527,17.3403689 102.621546,17.3403689 C101.707257,17.3405549 100.792968,17.3424613 99.8786787,17.3395784 C99.5014874,17.3383695 99.4958146,17.3336732 99.4955357,16.954157 C99.4937222,14.4901382 99.4952567,12.0262123 99.4936757,9.56224 C99.4934898,9.29896867 99.4940012,9.03448838 99.4711242,8.77256549 C99.4030513,7.99214406 98.991498,7.56120116 98.2167493,7.45909168 C97.9564073,7.4248227 97.6923455,7.40617702 97.4297717,7.40389862 C96.6240089,7.39697043 95.8181066,7.40659551 95.0123438,7.39817938 C94.7990112,7.39599397 94.6882996,7.45546484 94.7100607,7.68576914 C94.7201972,7.79327237 94.7114556,7.90254253 94.7114556,8.01102223 C94.7114091,10.9089133 94.7114556,13.8068045 94.7114556,16.7046491 C94.7114556,16.7976449 94.713176,16.8906408 94.7111301,16.9835902 C94.703365,17.3319993 94.7029,17.337951 94.3468188,17.3393459 C93.4325298,17.3428333 92.5181943,17.3424148 91.6039053,17.3395784 C91.2249471,17.3383695 91.2193208,17.3337662 91.2189488,16.9560634 C91.2169029,14.9879451 91.2179724,13.0198733 91.2179724,11.0518015" id="Fill-27" fill="#069AE4"></path>
                    <path d="M59.6495259,12.3761279 C58.564729,12.3762674 57.479932,12.374175 56.3951816,12.3773834 C56.0138985,12.3785458 55.9977172,12.4042127 56.0668131,12.7754987 C56.2529444,13.7753904 56.7991557,14.3271815 57.7962575,14.5333069 C58.2393364,14.6248613 58.6869255,14.642763 59.1368396,14.642577 C60.3920515,14.642112 61.6473099,14.6414146 62.9025683,14.643321 C63.3161674,14.6439255 63.3203988,14.6474593 63.3223982,15.0411574 C63.325746,15.7075193 63.3177949,16.3739743 63.326118,17.0402433 C63.3287219,17.2495305 63.2774347,17.3468972 63.0418761,17.3442933 C61.259982,17.3243457 59.4763676,17.3959525 57.6963334,17.3073275 C55.7613681,17.2109372 54.2251227,16.3611874 53.1642257,14.7170202 C52.66056,13.9364128 52.3846413,13.0670408 52.2703028,12.1504269 C52.1115124,10.8771273 52.1420615,9.61633571 52.59444,8.39334689 C52.8882139,7.59906908 53.3141816,6.8853722 53.8896401,6.26374124 C54.79449,5.28621505 55.9590774,4.87749815 57.2476748,4.77576066 C59.1660403,4.62431687 61.0890091,4.73567944 63.00956,4.69903906 C63.2600444,4.69420327 63.3308143,4.78924506 63.327048,5.02573359 C63.3161674,5.70743988 63.3269085,6.38942517 63.3214217,7.07122446 C63.3188643,7.39057232 63.3108202,7.39843047 62.9753375,7.39973241 C61.8905871,7.40373123 60.8057902,7.40010439 59.7210397,7.40182482 C59.1170315,7.40275478 58.5128372,7.3841091 57.9105029,7.46022623 C57.6936365,7.48766001 57.4826289,7.53276302 57.276085,7.59688367 C56.8037125,7.74344518 56.4750185,8.04954112 56.2854464,8.50833629 C56.160274,8.81140987 56.091085,9.12745636 56.0431457,9.44964059 C56.0197572,9.60698962 56.0844823,9.68292076 56.2462952,9.677434 C56.3546354,9.67376066 56.4632546,9.67771299 56.5717342,9.67771299 C58.6328019,9.67775948 60.6938696,9.67775948 62.7549838,9.67780598 C62.8634635,9.67785248 62.9721757,9.68394371 63.0803299,9.67803847 C63.2605094,9.66822741 63.3248626,9.75350463 63.3239326,9.92731393 C63.3198873,10.6556577 63.3170509,11.3840479 63.32556,12.1122986 C63.3284429,12.3612021 63.1869497,12.3783133 62.9968661,12.3777089 C61.8811015,12.3742215 60.7652905,12.3759884 59.6495259,12.3761279" id="Fill-29" fill="#069AE4"></path>
                    <path d="M39.578718,9.67775018 C40.6635149,9.67779668 41.7482654,9.67612276 42.8330623,9.67868014 C43.2305267,9.6796101 43.2336421,9.6842599 43.235502,10.0925118 C43.2382919,10.7123758 43.2381989,11.3322399 43.235595,11.9521504 C43.2337816,12.3721663 43.2308987,12.3754212 42.7910282,12.3756072 C40.6834626,12.3769091 38.5758969,12.3759791 36.4682848,12.3763511 C35.8871071,12.3764441 35.8962207,12.3751887 36.0209281,12.9353959 C36.2039905,13.7572934 36.6921259,14.2719791 37.5098387,14.4799179 C37.9329234,14.5876072 38.3606115,14.6402428 38.7965762,14.6400568 C40.1293001,14.6395919 41.4620241,14.6407543 42.794748,14.6431257 C43.2310382,14.6438697 43.2339676,14.6463806 43.235595,15.0669079 C43.2380594,15.7177861 43.2293643,16.3687572 43.2395938,17.0194959 C43.2432207,17.2497537 43.1825408,17.3474459 42.9290341,17.345121 C41.193545,17.3293117 39.4571259,17.3581404 37.7226597,17.311782 C36.0314367,17.2665395 34.5944178,16.6209156 33.4966945,15.2982817 C32.8701812,14.5433876 32.4752277,13.6757826 32.2861671,12.718297 C31.9996468,11.2673288 31.9965779,9.82668309 32.50215,8.4134712 C32.7876474,7.61552005 33.2152889,6.90214865 33.7887015,6.27912276 C34.5085826,5.49702741 35.413293,5.05817985 36.4500576,4.87167661 C37.061645,4.76161599 37.6797886,4.71153771 38.2992807,4.70735289 C39.8024196,4.69730934 41.3056515,4.70214512 42.8088369,4.70344706 C43.2317357,4.70381905 43.2340606,4.70767838 43.235688,5.14438703 C43.2379199,5.74876725 43.2377339,6.35314748 43.2357345,6.9575277 C43.234293,7.39842117 43.2322471,7.40051357 42.7695461,7.40093206 C41.4522595,7.4020945 40.1350194,7.40479139 38.8178257,7.39921163 C38.4443543,7.3976307 38.0742772,7.43041175 37.705874,7.47681669 C36.7773566,7.59380551 36.2780617,8.03902329 36.0548251,8.92769191 C35.8664155,9.67775018 35.8664155,9.67775018 36.6498128,9.67775018 L39.578718,9.67775018 Z" id="Fill-31" fill="#069AE4"></path>
                    <path d="M67.1013462,10.5565798 C67.1013462,9.62731852 67.1036711,8.69796419 67.1001837,7.76870286 C67.0988353,7.41090121 67.0928371,7.40592593 66.743684,7.40257808 C66.248109,7.3977888 65.752441,7.40462399 65.2568659,7.40016019 C64.8959489,7.39690533 64.8900437,7.39234854 64.8878118,7.04691534 C64.8833945,6.38092535 64.8833015,5.71488885 64.8878118,5.04894536 C64.8900437,4.71457867 64.8963209,4.70867343 65.2188771,4.70430263 C65.6524704,4.69839739 66.0862032,4.7050001 66.5198895,4.70225672 C67.1824851,4.69802541 67.0982308,4.76437797 67.1002767,4.14284 C67.1041361,2.96574465 67.1013462,1.7886493 67.1013927,0.611507453 C67.1013927,0.503074257 67.10674,0.394408572 67.1007882,0.286300861 C67.0912096,0.112026582 67.1614215,0.0313061585 67.3428565,0.0369324093 C67.5904115,0.0445580714 67.8384315,0.0380948578 68.0862191,0.0380483598 C68.7831767,0.0379553639 69.4801808,0.0358629566 70.1771384,0.0388853227 C70.558468,0.0405592486 70.5642338,0.0444650755 70.5650242,0.417936529 C70.5678606,1.67249745 70.5650242,2.92701187 70.5666517,4.18157279 C70.5673956,4.73745566 70.5059254,4.70211722 71.0961702,4.7026287 C71.8705469,4.70318668 72.6450166,4.7003038 73.4193933,4.70383765 C73.7862155,4.70555807 73.7923998,4.71067284 73.7947247,5.05113076 C73.7991885,5.71707426 73.7990955,6.38311075 73.7947247,7.04905425 C73.7924463,7.39253453 73.786448,7.39839327 73.4244616,7.40006719 C72.6035869,7.40388003 71.7827123,7.39890475 70.9618377,7.40243859 C70.5749748,7.40411252 70.5679536,7.40927379 70.5674421,7.78316372 C70.5655357,9.28555866 70.5633968,10.7880001 70.5731614,12.2902555 C70.5754398,12.6454998 70.6079418,13.0024645 70.6539748,13.3550584 C70.7475752,14.0710801 71.0760366,14.4182338 71.7846652,14.5859983 C72.1359571,14.6691366 72.4942238,14.6236617 72.8486776,14.6455622 C73.1521231,14.6643009 73.5347082,14.5056964 73.7377182,14.7252132 C73.9176187,14.9198535 73.7880754,15.2884892 73.7935157,15.5798453 C73.8027223,16.0753273 73.7939342,16.5710884 73.7969566,17.0666634 C73.7978865,17.2201531 73.7853321,17.3459301 73.5817641,17.3398853 C72.3915098,17.3042214 71.1963268,17.4320907 70.0110943,17.2376364 C68.641637,17.0129583 67.7330207,16.2671778 67.3708948,14.899069 C67.2115928,14.2970601 67.1187829,13.6864957 67.1110643,13.0656087 C67.1006952,12.2294362 67.1085069,11.3929383 67.1085069,10.5565798 L67.1013462,10.5565798 Z" id="Fill-35" fill="#069AE4"></path>
                    <path d="M46.0819617,8.68558179 C46.0819617,5.97554236 46.0814968,3.26550292 46.0823337,0.55537049 C46.0825197,-0.0245983147 46.0397416,0.0404058054 46.6113873,0.0386853816 C47.46309,0.0361279949 48.3148393,0.036034999 49.1665886,0.0389643692 C49.5388511,0.0402663116 49.5427569,0.0448696076 49.5445238,0.426896682 C49.5476392,1.09279368 49.5454073,1.75869068 49.5454073,2.42463418 C49.5454073,7.22526749 49.5460118,12.0259938 49.5446168,16.8266271 C49.5444773,17.4045035 49.6026928,17.3373605 49.0168187,17.3396854 C48.1805998,17.3429402 47.3443343,17.3418243 46.5080689,17.3399644 C46.0855886,17.3390344 46.0826127,17.3364305 46.0824732,16.9087425 C46.0814968,14.1676424 46.0819617,11.4266354 46.0819617,8.68558179" id="Fill-37" fill="#069AE4"></path>
                </g>
                <path d="M156.437091,72.9447779 C158.340345,74.0436172 158.326395,74.0785836 156.471174,75.165938 C152.625794,77.4192281 148.764094,79.6634047 144.886724,81.8981887 C143.037315,82.963968 142.987329,82.9651304 141.05441,81.8508538 C139.286093,80.8314795 137.517916,79.8112217 135.750901,78.7910104 C133.254194,77.3495277 130.759022,75.9078591 128.263013,74.465772 C125.721435,72.9971345 123.179346,71.5282646 120.636699,70.0602782 C115.471941,67.0784118 110.303323,64.0992888 105.121592,61.1272799 C101.14825,58.8486484 97.1256671,56.5815483 92.545992,54.7055889 C88.0932562,52.8817072 84.2655923,52.9286702 79.8189013,54.7448797 C78.7519131,55.1805654 77.6853899,55.6425224 76.7844458,56.1853394 C72.2873975,58.8947278 71.6792974,61.7336596 74.8407389,65.0414765 C76.6088231,66.8909321 78.9643622,68.4794412 81.5326294,69.9677473 C82.3239313,70.426217 83.1161168,70.8841752 83.9088136,71.3418079 C84.9136806,71.9220092 85.9193381,72.501699 86.925042,73.0813888 C87.9438584,73.6685648 88.9630467,74.2560663 89.9809331,74.8437537 C92.9179755,76.5394406 95.8474387,78.2388008 98.7500726,79.9539703 C102.899223,82.4058997 106.893536,84.9559397 109.88805,87.9405495 C113.990191,92.0299968 116.356936,96.4606925 113.809965,101.075334 C108.89211,109.984339 98.990188,116.200556 82.8611685,118.471376 C73.1403092,119.839717 64.4728607,118.267157 56.7256994,114.702857 C52.2456229,112.64179 48.1717989,110.330842 44.1240138,108.000644 C41.6468825,106.574506 39.1719366,105.146508 36.6982462,103.718323 C35.3638949,102.947992 34.0302409,102.177661 32.6961685,101.407236 C31.2732386,100.585199 29.8497972,99.7630692 28.4265417,98.9413576 C27.9054393,98.6404695 27.3846624,98.3398138 26.8635135,98.0390651 C18.8553128,93.4168909 10.8483675,88.7940657 2.84170121,84.1714265 C2.6005164,84.0321652 2.35826213,83.8935083 2.11707732,83.754247 C1.96967885,83.6691557 1.82265236,83.583832 1.67646284,83.4979968 C-0.490527155,82.2270686 -0.503593076,82.219164 1.58369945,80.999337 C5.28014618,78.8391357 8.99472711,76.6890245 12.7018684,74.5346819 C12.8561485,74.4450339 13.0065229,74.3528285 13.1667083,74.2662493 C14.8326365,73.3652122 14.8356123,73.3634918 16.5577565,74.3061911 C16.7400285,74.4058361 16.9190455,74.5074341 17.0965282,74.6098691 C17.3855129,74.7767502 17.6704987,74.9458632 17.9595764,75.1127908 C30.5555894,82.3816743 43.1528113,89.6502323 55.7476618,96.9198132 C58.6294181,98.5829515 61.6906565,100.115617 65.1223439,101.394728 C69.837514,103.152444 74.6428437,103.273617 79.3216059,101.507625 C84.7146229,99.4717131 87.0933645,96.1495748 85.9082251,92.8302264 C84.9539478,90.1570598 82.1355217,88.122217 78.9853793,86.2518373 C72.3935988,82.3388032 65.6467012,78.5138361 59.015072,74.623586 C55.6916783,72.6741134 52.8576288,70.4959174 50.3305123,68.1758562 C43.5395346,61.9415054 44.051291,55.6570763 50.0335299,49.4288632 C54.8440673,44.4204771 62.1217854,41.0316607 71.4511786,39.0737255 C81.6195806,36.939377 91.0273228,37.8261393 99.8780661,41.3066031 C103.521087,42.7391581 106.867869,44.3884865 109.983835,46.1772623 C125.497548,55.0828267 140.964064,64.015546 156.437091,72.9447779" id="Fill-1" stroke="#069AE4" stroke-width="2.324897" fill="#FFFFFF"></path>
                <path d="M99.8780615,41.3066077 C91.0273181,37.8261439 81.7269861,42.6196431 71.5585841,44.7539915 C62.229191,46.7119268 54.8440627,44.4204818 50.0335253,49.4288679 C46.812334,52.7825318 45.1772339,56.15247 45.4143269,59.5221292 L45.5217837,21.618729 C45.2847372,18.2491162 46.9198372,14.8791315 50.1410285,11.5254676 C54.9515194,6.51712802 62.229284,3.12826516 71.5585841,1.1703299 C81.7270326,-0.96401854 91.1348213,-0.0772098293 99.9855182,3.40320747 C103.628492,4.83576251 106.975368,6.48513743 110.091288,8.27386669 C125.605,17.1794776 141.071516,26.1121504 156.544589,35.0414288 L156.437086,72.9447825 C140.96406,64.0155506 125.497543,55.0828314 109.983831,46.1772669 C106.867864,44.3884912 103.521082,42.7391627 99.8780615,41.3066077 Z" id="Fill-4" stroke="#069AE4" stroke-width="2.324897" fill="#FFFFFF"></path>
                <path d="M156.437091,72.9447779 L156.544594,35.0414241 C157.496128,35.5908438 157.968501,35.8742952 157.971011,36.1563052 L157.863555,74.059659 C157.861044,73.777649 157.388718,73.4941975 156.437091,72.9447779" id="Fill-6" stroke="#069AE4" stroke-width="2.324897" fill="#FFFFFF"></path>
                <path d="M76.7844411,56.185358 C74.1899956,57.7484327 72.8899132,59.3546576 72.8613634,61.0691761 L72.9688202,23.1658224 C72.9974164,21.4513038 74.2974523,19.845079 76.8919444,18.2819577 C77.7928419,17.7391408 78.8593652,17.2772303 79.9263069,16.8414981 C84.3730909,15.025335 88.2006618,14.9783721 92.6534441,16.8022073 C97.2331192,18.6781667 101.255749,20.9452667 105.228998,23.2238983 C110.410821,26.1959071 115.579393,29.1750301 120.744198,32.1568965 C123.286845,33.6249295 125.828934,35.0937529 128.370465,36.5623903 C130.866474,38.0044775 133.361693,39.4461926 135.8584,40.8876752 C137.625415,41.90784 139.393499,42.9280978 141.161815,43.9475187 C143.094781,45.0617488 143.144767,45.0605398 144.994129,43.9947606 C148.871592,41.7600696 152.733293,39.5158465 156.578672,37.2626028 C157.50626,36.7189024 157.973518,36.4383338 157.971007,36.1563238 L157.86355,74.0596776 C157.866107,74.3417341 157.398803,74.6223026 156.471216,75.1659566 C152.62579,77.4192467 148.764136,79.6634233 144.886719,81.8981608 C143.03731,82.9639401 142.987325,82.965149 141.054405,81.8508724 C139.286089,80.8314981 137.517911,79.8111938 135.750897,78.791029 C133.25419,77.3495463 130.759017,75.9078312 128.263008,74.4657441 C125.721431,72.9971531 123.179342,71.5282832 120.636741,70.0602503 C115.471936,67.0784304 110.303318,64.0992609 105.121588,61.127252 C101.148292,58.8486205 97.1256624,56.5815669 92.5459873,54.7056075 C88.0932516,52.8816793 84.2656342,52.9286888 79.8188967,54.7448983 C78.7519085,55.180584 77.6853852,55.6424945 76.7844411,56.185358" id="Fill-8" stroke="#069AE4" stroke-width="2.324897" fill="#FFFFFF"></path>
                <path d="M98.7500912,79.9539657 C95.8474573,78.2388427 93.0254508,89.6362317 90.088455,87.9405448 C89.0705221,87.3528574 88.0513802,86.7654024 87.0325173,86.1781799 C86.0268599,85.5984901 85.0212025,85.0188003 84.016289,84.4386455 C83.2235921,83.9809663 82.4314067,83.5230081 81.6401512,83.0645384 C79.0718375,81.5762323 76.6088416,66.8909274 74.8407575,65.0414719 C73.5031977,63.6420234 72.8404161,62.3265036 72.8613402,61.0691994 L72.9688434,23.1657991 C72.9478728,24.4231034 73.610701,25.7386696 74.9482142,27.1381181 C76.7163449,28.9875272 79.0718375,30.5760828 81.6401047,32.0643424 C82.4313602,32.5228121 83.2235456,32.9808168 84.016289,33.4384495 C85.0211095,34.0186508 86.0268134,34.5982941 87.0325173,35.1779839 C88.0512872,35.7652064 89.0704756,36.3527079 90.088455,36.9403954 C93.0254043,38.6360822 95.9549605,40.3354889 98.8575014,42.0506119 C103.006652,44.5024948 107.000965,47.0525813 109.995525,50.0371911 C112.83548,52.8683577 114.843633,55.8630575 114.965457,58.9691664 L114.858001,96.8725201 C114.736176,93.7664577 112.727976,90.7717114 109.888068,87.9405448 C106.893554,84.9559351 102.899195,82.4058951 98.7500912,79.9539657 Z" id="Fill-13" stroke="#069AE4" stroke-width="2.324897" fill="#FFFFFF"></path>
                <path d="M50.3305169,68.1758794 C47.1962303,65.2984474 45.6175787,62.4104138 45.4143362,59.5221478 L45.521793,21.6187476 C45.724989,24.5070601 47.303687,27.3950936 50.4380202,30.2724792 C52.9650902,32.5925404 55.7991396,34.7707364 59.1224869,36.720209 C65.7541161,40.6105057 72.5010602,44.4354727 79.0928406,48.3485068 C82.2429366,50.21884 85.0614092,52.2536828 86.0156399,54.9268959 C86.2435728,55.5652196 86.3396841,56.2036363 86.307926,56.8330324 L86.2004693,94.7363862 C86.2322273,94.1070366 86.1361161,93.4685733 85.9082297,92.8302496 C84.9539525,90.1570366 82.1355263,88.1222402 78.9853839,86.2518606 C72.3936035,82.3388264 65.6467059,78.5138594 59.0150302,74.6236092 C55.6916829,72.6740901 52.8576335,70.4959406 50.3305169,68.1758794" id="Fill-11" stroke="#069AE4" stroke-width="2.324897" fill="#FFFFFF"></path>
                <path d="M79.3216198,101.507635 C74.6428576,103.27358 69.8374815,103.152453 65.1223579,101.394738 C61.6906239,100.115626 58.6293856,98.5829608 55.7476757,96.9198225 C43.1528252,89.6502416 30.5556033,82.3816836 17.9595904,75.1128001 C17.6704662,74.9458725 17.3854803,74.7767595 17.0965421,74.6098784 C16.9190595,74.5074434 16.7400424,74.4058454 16.5577705,74.3062004 C14.8356263,73.3635011 14.8326504,73.3652215 13.1667222,74.2662586 C13.0065368,74.3528378 12.856116,74.4449967 12.7018823,74.5346912 C8.99469456,76.6890338 5.28016013,78.8390985 1.5837134,80.9992998 C0.540020638,81.6092598 0.021522109,81.9161927 0.0347275239,82.2294958 L0.142184263,44.3260956 C0.12893235,44.0127925 0.647523875,43.7058596 1.69112364,43.0958996 C5.38761687,40.9357448 9.1021978,38.78568 12.8092926,36.6313375 C12.9636192,36.541643 13.1139936,36.4494376 13.274179,36.3629049 C14.9401072,35.4618213 14.9430365,35.4601474 16.6652272,36.4028001 C16.8474992,36.5024917 17.0265162,36.6040897 17.2039524,36.7065247 C17.4929371,36.8734058 17.7779229,37.0425188 18.0670471,37.2094464 C30.6630601,44.4783298 43.2602355,51.7468878 55.855086,59.0164687 C58.7368888,60.6795606 61.7980807,62.2122257 65.2298611,63.4913375 C69.9449847,65.2490526 74.7503143,65.3702263 79.4290766,63.604281 C83.7849571,61.9598813 86.1744397,59.4764264 86.3079353,56.8330185 L86.2004321,94.7363722 C86.066983,97.3797801 83.6775003,99.8632351 79.3216198,101.507635" id="Fill-15" stroke="#069AE4" stroke-width="2.324897" fill="#FFFFFF"></path>
                <path d="M1.67646284,83.4979922 C0.592967842,82.8625048 0.0479654874,82.5428315 0.0347135746,82.2295284 L0.142170314,44.3261281 C0.155422227,44.6394778 0.700424581,44.9591511 1.78391958,45.5946384 C1.9301091,45.6804736 2.07708909,45.7657974 2.22453406,45.8508886 C2.46571887,45.9901499 2.70797314,46.1288068 2.94915795,46.2680216 C10.9558242,50.8907073 18.962816,55.5135325 26.9709702,60.1357067 C27.4920726,60.4364554 28.0128495,60.7371111 28.533952,61.0379992 C29.9572539,61.8597108 31.3806953,62.6817944 32.8036253,63.503878 C34.1376512,64.2743024 35.4713981,65.0446337 36.805703,65.8149651 C39.2793469,67.2431493 41.7543857,68.6711011 44.231424,70.0972859 C48.2793022,72.4274371 52.3530332,74.7384313 56.8331562,76.7994989 C58.9189143,77.7591234 61.0713969,78.5743718 63.2931615,79.2267379 C69.3237583,80.9973795 75.8649025,81.5679557 82.9686253,80.567971 C86.0703634,80.1313088 88.9417972,79.5486896 91.5918077,78.8290875 C102.721741,75.8067679 109.945335,70.3676714 113.917468,63.1719757 C114.701098,61.7521146 115.019609,60.3496437 114.965485,58.9691664 L114.857982,96.8725201 C114.912152,98.2529975 114.593688,99.6554683 113.809965,101.075329 C108.89211,109.984335 98.990188,116.200551 82.8611685,118.471371 C73.1403092,119.839713 64.4728607,118.267152 56.7256994,114.702899 C52.2456229,112.641785 48.1717989,110.330837 44.1240138,108.00064 C41.6468825,106.574501 39.1719366,105.146503 36.6982462,103.718319 C35.3638949,102.947987 34.0302409,102.177656 32.6961685,101.407232 C31.2732386,100.585195 29.8497972,99.7630646 28.4265417,98.941353 C27.9054393,98.6404648 27.3846624,98.3398091 26.8635135,98.0390604 C18.8553128,93.4168862 10.8483675,88.794061 2.84170121,84.1714218 C2.6005164,84.0321605 2.35826213,83.8935036 2.11707732,83.7542423 C1.96967885,83.6691511 1.82265236,83.5838274 1.67646284,83.4979922" id="Fill-17" stroke="#069AE4" stroke-width="2.324897" fill="#FFFFFF"></path>
                <rect id="Rectangle-2" fill="#069AE4" fill-rule="nonzero" x="141.911713" y="44.3125368" width="2.324897" height="38.3795921"></rect>
            </g>
        </g>
    </g>
</svg>